<?xml version="1.0" encoding="utf-8"?>
<!-- Generator: Adobe Illustrator 27.8.0, SVG Export Plug-In . SVG Version: 6.00 Build 0)  -->
<svg version="1.1" id="Layer_1" xmlns="http://www.w3.org/2000/svg" xmlns:xlink="http://www.w3.org/1999/xlink" x="0px" y="0px"
	 viewBox="0 0 512 512" style="enable-background:new 0 0 512 512;" xml:space="preserve">
<style type="text/css">
	.st0{fill:#002035;}
	.st1{fill:#EDF6FF;}
</style>
<circle class="st0" cx="256" cy="256" r="256"/>
<g>
	<path class="st1" d="M250.1,96h14.6c39.6,2.1,78.7,18.8,106.6,47.1c18.7,18.2,31.7,41,40.3,65.3c-9.6,5.6-19.2,11-28.8,16.9
		c-8.6-32.3-29.4-61.3-58.5-78.6c-28.8-17.6-65-23.4-97.9-14.8c-36.3,8.9-68.3,34.3-84.7,67.9c-17.4,34.2-17.7,76.4-1,110.9
		c14.3,31.5,42.4,56,75.2,67.1c34.1,11.7,73.4,8.3,104.7-9.6c27.9-15.7,49.3-41.9,59.8-72.1c-52.3-29.9-104.7-59.5-156.7-89.1
		c0.3,32,0.3,64.1,0,96.4c17.7-10.5,35.7-20.4,53.4-30.8c9.6,5.3,18.9,10.5,28.5,15.7c-27,15.7-54.2,31.2-81.2,46.5
		c-9.6-5.6-18.9-11-28.5-16.4c0.3-42.2,0.3-84.2,0-126.3c9.3-5.6,18.9-11,28.5-16.4C288,212.1,351.9,248.4,416,284.7
		c-7.5,40.4-31,77.7-64.8,101.4c-24.5,17.6-53.6,28-83.6,29.8h-19.8c-28.5-1.6-56.7-11-80.5-27.2c-38.4-25-65-68-70.1-113.5
		c-5.9-46.5,10.6-95.5,43.4-129.1C168.6,116,208.9,98.1,250.1,96z"/>
	<path class="st1" d="M437.4,105.1l-9.8-3.6c-7.9-2.9-14.2-9.2-17.1-17.1l-3.6-9.8c-0.1-0.4-0.5-0.6-0.9-0.6s-0.7,0.2-0.9,0.6
		l-3.6,9.8c-2.9,7.9-9.2,14.2-17.1,17.1l-9.8,3.6c-0.4,0.1-0.6,0.5-0.6,0.9c0,0.4,0.2,0.7,0.6,0.9l9.8,3.6
		c7.9,2.9,14.2,9.2,17.1,17.1l3.6,9.8c0.1,0.4,0.5,0.6,0.9,0.6s0.7-0.2,0.9-0.6l3.6-9.8c2.9-7.9,9.2-14.2,17.1-17.1l9.8-3.6
		c0.4-0.1,0.6-0.5,0.6-0.9C438,105.6,437.8,105.3,437.4,105.1z"/>
	<path class="st1" d="M335.6,53.4l-6.7-2.5c-5.5-2-9.7-6.3-11.8-11.8l-2.5-6.7c-0.1-0.3-0.3-0.4-0.6-0.4s-0.5,0.2-0.6,0.4l-2.5,6.7
		c-2,5.5-6.3,9.7-11.8,11.8l-6.7,2.5c-0.3,0.1-0.4,0.3-0.4,0.6s0.2,0.5,0.4,0.6l6.7,2.5c5.5,2,9.7,6.3,11.8,11.8l2.5,6.7
		c0.1,0.3,0.3,0.4,0.6,0.4s0.5-0.2,0.6-0.4l2.5-6.7c2-5.5,6.3-9.7,11.8-11.8l6.7-2.5c0.3-0.1,0.4-0.3,0.4-0.6
		C336,53.7,335.8,53.5,335.6,53.4z"/>
	<path class="st1" d="M479.6,197.4l-6.7-2.5c-5.5-2-9.7-6.3-11.8-11.8l-2.5-6.7c-0.1-0.3-0.3-0.4-0.6-0.4s-0.5,0.2-0.6,0.4l-2.5,6.7
		c-2,5.5-6.3,9.7-11.8,11.8l-6.7,2.5c-0.3,0.1-0.4,0.3-0.4,0.6s0.2,0.5,0.4,0.6l6.7,2.5c5.5,2,9.7,6.3,11.8,11.8l2.5,6.7
		c0.1,0.3,0.3,0.4,0.6,0.4s0.5-0.2,0.6-0.4l2.5-6.7c2-5.5,6.3-9.7,11.8-11.8l6.7-2.5c0.3-0.1,0.4-0.3,0.4-0.6
		S479.8,197.5,479.6,197.4z"/>
</g>
</svg>
