<?xml version="1.0" encoding="UTF-8"?>
<svg id="Layer_1" xmlns="http://www.w3.org/2000/svg" version="1.1" viewBox="0 0 24 24">
  <!-- Generator: Adobe Illustrator 29.7.1, SVG Export Plug-In . SVG Version: 2.1.1 Build 8)  -->
  <defs>
    <style>
      .st0 {
        fill: #fff;
      }
    </style>
  </defs>
  <path class="st0" d="M17,22c-1.38,0-2.56-.49-3.54-1.46s-1.46-2.15-1.46-3.54.49-2.56,1.46-3.54,2.15-1.46,3.54-1.46,2.56.49,3.54,1.46,1.46,2.15,1.46,3.54-.49,2.56-1.46,3.54-2.15,1.46-3.54,1.46ZM16.5,20h1v-2.5h2.5v-1h-2.5v-2.5h-1v2.5h-2.5v1h2.5v2.5Z"/>
  <path class="st0" d="M14,2H6c-.55,0-1.02.2-1.41.59s-.59.86-.59,1.41v16c0,.55.2,1.02.59,1.41s.86.59,1.41.59h6.1s-.04-.03-.05-.05c-1.36-1.36-2.05-3.02-2.05-4.95s.68-3.59,2.05-4.95,3.02-2.05,4.95-2.05c1.09,0,2.09.22,3,.66v-2.66l-6-6ZM8.17,9.13h-3.27v-4.29h3.18v.73h-2.32v.95h2.16v.72h-2.16v1.17h2.4v.72ZM11.41,9.13l-.95-1.49-.96,1.49h-1.04l1.47-2.24-1.33-2.05h1.01l.86,1.38.84-1.38h1l-1.34,2.09,1.47,2.21h-1.05ZM16.17,9.13h-3.27v-4.29h3.18v.73h-2.32v.95h2.16v.72h-2.16v1.17h2.4v.72Z"/>
</svg>