<?xml version="1.0" encoding="UTF-8"?>
<svg id="Layer_1" xmlns="http://www.w3.org/2000/svg" version="1.1" viewBox="0 0 24 24">
  <!-- Generator: Adobe Illustrator 29.7.1, SVG Export Plug-In . SVG Version: 2.1.1 Build 8)  -->
  <defs>
    <style>
      .st0 {
        fill: #fff;
      }
    </style>
  </defs>
  <path class="st0" d="M17,22c-1.38,0-2.56-.49-3.54-1.46s-1.46-2.15-1.46-3.54.49-2.56,1.46-3.54,2.15-1.46,3.54-1.46,2.56.49,3.54,1.46,1.46,2.15,1.46,3.54-.49,2.56-1.46,3.54-2.15,1.46-3.54,1.46ZM16.5,20h1v-2.5h2.5v-1h-2.5v-2.5h-1v2.5h-2.5v1h2.5v2.5Z"/>
  <path class="st0" d="M10,17c0-1.94.68-3.59,2.05-4.95s3.02-2.05,4.95-2.05,3.59.68,4.95,2.05c.02.02.03.04.05.05v-4.1c0-.55-.2-1.02-.59-1.41s-.86-.59-1.41-.59h-8l-2-2h-6c-.55,0-1.02.2-1.41.59s-.59.86-.59,1.41v12c0,.55.2,1.02.59,1.41s.86.59,1.41.59h6.66c-.43-.91-.66-1.91-.66-3Z"/>
</svg>